<svg xmlns="http://www.w3.org/2000/svg" width="1920" height="1113" viewBox="0 0 1920 1113" fill="none"><path d="M628.716 1053.33C626.082 1053.33 623.764 1054.7 622.429 1056.79L560.611 1020.94C561.489 1019.32 562.016 1017.48 562.016 1015.54C562.016 1009.33 557.099 1004.29 550.952 1004.11V928.648C552.849 928.471 554.324 926.919 554.324 924.979C554.324 924.414 554.184 923.885 553.973 923.426L620.568 884.794C622.254 887.511 625.274 889.345 628.681 889.345C633.985 889.345 638.305 885.006 638.305 879.679C638.305 874.457 634.196 870.259 629.032 870.047V797.934C633.739 797.758 637.497 793.912 637.497 789.149C637.497 784.28 633.563 780.329 628.716 780.329C625.59 780.329 622.851 781.987 621.305 784.457L557.275 747.342C557.801 746.319 558.153 745.154 558.153 743.884C558.153 739.721 554.781 736.334 550.636 736.334C546.491 736.334 543.12 739.721 543.12 743.884C543.12 745.154 543.436 746.283 543.998 747.342L479.089 784.951C477.719 782.763 475.295 781.317 472.556 781.317C469.816 781.317 467.393 782.763 466.023 784.951L398.093 745.543C398.339 745.013 398.48 744.449 398.48 743.849C398.48 741.626 396.688 739.827 394.476 739.827C392.263 739.827 390.471 741.626 390.471 743.849C390.471 744.449 390.647 745.013 390.858 745.543L319.346 787.032C318.678 786.08 317.625 785.445 316.395 785.445C315.166 785.445 314.112 786.08 313.445 787.032L245.761 747.801C246.394 746.636 246.78 745.296 246.78 743.884C246.78 739.298 243.162 735.594 238.666 735.417V658.4C241.336 658.224 243.443 656.001 243.443 653.284C243.443 650.462 241.16 648.133 238.315 648.133C236.559 648.133 234.978 649.051 234.065 650.427L168.981 612.677C169.718 611.265 170.175 609.713 170.175 607.984C170.175 602.445 165.714 598 160.235 598C154.72 598 150.295 602.481 150.295 607.984C150.295 609.678 150.751 611.265 151.489 612.677L89.074 648.874C87.5988 646.581 85.0699 645.029 82.1546 645.029C77.6236 645.029 73.9356 648.733 73.9356 653.284C73.9356 657.73 77.448 661.328 81.8385 661.505V735.911C77.6236 736.087 74.2517 739.58 74.2517 743.849C74.2517 745.19 74.603 746.425 75.2001 747.518L5.47932 787.914C5.12808 787.491 4.63634 787.209 4.03924 787.209C2.98552 787.209 2.10743 788.055 2.10743 789.149C2.10743 790.102 2.80991 790.843 3.688 791.019V875.727C1.65082 875.904 0 877.562 0 879.714C0 881.937 1.82644 883.771 4.03924 883.771C5.40907 883.771 6.56815 883.03 7.30575 882.007L77.5885 922.756C77.2724 923.426 77.0617 924.202 77.0617 924.979C77.0617 927.66 79.1691 929.847 81.8034 930.024V1010.67C79.2745 1010.85 77.2724 1012.93 77.2724 1015.54C77.2724 1016.32 77.448 1017.03 77.7641 1017.7L5.12808 1059.82C4.84709 1059.54 4.46072 1059.33 4.03924 1059.33C3.23139 1059.33 2.52891 1060 2.52891 1060.84C2.52891 1061.55 3.02065 1062.11 3.688 1062.29V1112H4.35535V1062.29C5.02271 1062.15 5.51444 1061.55 5.51444 1060.84C5.51444 1060.7 5.47932 1060.56 5.44419 1060.42L78.0802 1018.3C78.9583 1019.6 80.4335 1020.45 82.1195 1020.45C83.8054 1020.45 85.2806 1019.6 86.1587 1018.3L101.297 1027.08L149.311 1054.95C148.363 1056.72 147.766 1058.73 147.766 1060.88C147.766 1067.65 153.14 1073.16 159.848 1073.33V1112.04H160.516V1073.33C167.224 1073.16 172.598 1067.65 172.598 1060.88C172.598 1058.73 172.001 1056.72 171.053 1054.95L230.061 1020.73C231.782 1023.48 234.803 1025.32 238.245 1025.32C241.687 1025.32 244.708 1023.48 246.429 1020.73L297.077 1050.12L309.687 1057.42C309.16 1058.44 308.809 1059.61 308.809 1060.88C308.809 1064.94 312.005 1068.18 315.974 1068.39V1112.04H316.641V1068.39C320.61 1068.22 323.806 1064.94 323.806 1060.88C323.806 1059.64 323.49 1058.48 322.928 1057.42L369.432 1030.43L387.17 1020.13C388.68 1022.53 391.35 1024.15 394.37 1024.15C397.426 1024.15 400.06 1022.53 401.571 1020.13L434.727 1039.36L463.845 1056.26C463.108 1057.63 462.651 1059.19 462.651 1060.84C462.651 1066.14 466.831 1070.44 472.099 1070.62V1112H472.767V1070.62C478 1070.44 482.215 1066.14 482.215 1060.84C482.215 1059.19 481.758 1057.63 481.021 1056.26L519.06 1034.21L540.837 1021.58C542.839 1024.82 546.421 1027.04 550.531 1027.04C554.64 1027.04 558.188 1024.86 560.225 1021.58L622.043 1057.42C621.516 1058.44 621.165 1059.61 621.165 1060.84C621.165 1064.87 624.326 1068.11 628.295 1068.32V1112H628.962V1068.29C632.931 1068.11 636.092 1064.87 636.092 1060.81C636.198 1056.68 632.861 1053.33 628.716 1053.33ZM322.683 1056.79C321.348 1054.7 319.03 1053.29 316.36 1053.29C313.691 1053.29 311.373 1054.7 310.038 1056.79L280.112 1039.43L246.78 1020.09C247.518 1018.72 247.939 1017.2 247.939 1015.54C247.939 1010.29 243.794 1006.02 238.596 1005.84V930.906C241.687 930.729 244.181 928.154 244.181 924.979C244.181 924.026 243.935 923.109 243.513 922.333L283.344 899.224L308.809 884.441C310.389 886.946 313.164 888.64 316.325 888.64C319.486 888.64 322.261 886.946 323.842 884.441L368.168 910.126L388.926 922.156C388.505 923.003 388.224 923.955 388.224 924.943C388.224 928.26 390.823 930.941 394.054 931.117V1006.97C389.488 1007.15 385.835 1010.89 385.835 1015.51C385.835 1016.95 386.221 1018.3 386.854 1019.49L332.482 1051.04L322.683 1056.79ZM87.2124 924.979C87.2124 924.167 87.0017 923.426 86.6856 922.756L134.313 895.131L154.756 883.277C155.915 885.077 157.952 886.276 160.235 886.276C162.518 886.276 164.555 885.077 165.714 883.277L204.807 905.963L233.047 922.333C232.66 923.144 232.379 924.026 232.379 924.979C232.379 928.154 234.838 930.694 237.964 930.906V1005.88C232.766 1006.05 228.621 1010.32 228.621 1015.58C228.621 1017.24 229.078 1018.75 229.78 1020.13L170.772 1054.35C168.594 1050.79 164.696 1048.39 160.235 1048.39C155.774 1048.39 151.875 1050.79 149.698 1054.35L86.51 1017.73C86.8261 1017.1 87.0017 1016.35 87.0017 1015.61C87.0017 1013.04 84.9996 1010.92 82.4707 1010.75V930.024C85.105 929.847 87.2124 927.695 87.2124 924.979ZM480.81 1055.66C479.089 1052.87 476.033 1051.04 472.556 1051.04C469.043 1051.04 466.023 1052.91 464.302 1055.66L401.992 1019.53C402.624 1018.33 403.011 1016.99 403.011 1015.54C403.011 1010.92 399.358 1007.18 394.792 1007.01V931.153C398.058 930.976 400.622 928.295 400.622 924.979C400.622 923.956 400.376 923.038 399.92 922.191L463.95 885.077C465.742 887.934 468.903 889.875 472.521 889.875C476.138 889.875 479.3 887.934 481.091 885.077L534.093 915.806L547.264 923.426C547.053 923.92 546.913 924.414 546.913 924.979C546.913 926.919 548.423 928.471 550.285 928.648V1004.11C544.138 1004.29 539.221 1009.33 539.221 1015.54C539.221 1017.52 539.748 1019.32 540.626 1020.94L526.822 1028.95L480.81 1055.66ZM544.314 747.906C545.649 749.988 547.967 751.399 550.636 751.399C553.306 751.399 555.624 749.988 556.958 747.906L620.989 785.021C620.357 786.256 619.935 787.632 619.935 789.114C619.935 793.877 623.694 797.722 628.4 797.899V870.047C623.237 870.223 619.128 874.457 619.128 879.679C619.128 881.301 619.584 882.819 620.287 884.195L553.622 922.862C552.954 921.909 551.901 921.239 550.636 921.239C549.372 921.239 548.318 921.909 547.651 922.862L505.888 898.659L481.442 884.477C482.215 883.066 482.671 881.443 482.671 879.714C482.671 874.21 478.316 869.765 472.907 869.588V796.911C477.052 796.734 480.353 793.348 480.353 789.149C480.353 787.844 480.002 786.644 479.44 785.551L544.314 747.906ZM391.244 746.107C391.982 747.165 393.106 747.871 394.476 747.871C395.845 747.871 396.969 747.13 397.707 746.107L465.707 785.515C465.145 786.609 464.793 787.808 464.793 789.114C464.793 793.312 468.095 796.699 472.24 796.876V869.553C466.831 869.73 462.475 874.175 462.475 879.679C462.475 881.407 462.932 882.995 463.705 884.441L427.527 905.433L399.709 921.592C398.62 919.898 396.688 918.769 394.546 918.769C392.368 918.769 390.471 919.898 389.383 921.592L342.738 894.532L324.333 883.842C325.001 882.607 325.387 881.196 325.387 879.679C325.387 874.845 321.594 870.964 316.817 870.753V792.748C318.678 792.571 320.154 791.054 320.154 789.114C320.154 788.549 320.013 788.055 319.802 787.597L391.244 746.107ZM313.059 787.597C312.848 788.055 312.707 788.585 312.707 789.114C312.707 791.019 314.183 792.571 316.044 792.748V870.788C311.302 870.964 307.474 874.88 307.474 879.714C307.474 881.231 307.895 882.607 308.528 883.877L264.201 909.596L243.232 921.768C242.179 920.11 240.387 919.052 238.315 919.052C236.243 919.052 234.416 920.11 233.363 921.733L193.743 898.765L166.03 882.713C166.487 881.831 166.768 880.808 166.768 879.749C166.768 876.221 164.028 873.399 160.551 873.222V793.559C162.869 793.383 164.696 791.478 164.696 789.114C164.696 788.408 164.52 787.773 164.239 787.173L231.185 748.365C232.695 750.729 235.294 752.316 238.315 752.316C241.336 752.316 243.935 750.729 245.445 748.365L313.059 787.597ZM151.805 613.276C153.561 616.099 156.652 618.004 160.235 618.004C163.817 618.004 166.908 616.099 168.665 613.276L233.749 651.026C233.398 651.697 233.222 652.473 233.222 653.284C233.222 656.001 235.33 658.224 237.999 658.4V735.417C233.503 735.594 229.885 739.298 229.885 743.884C229.885 745.296 230.272 746.636 230.904 747.801L163.853 786.644C163.045 785.445 161.745 784.633 160.235 784.633C158.725 784.633 157.425 785.445 156.617 786.644L98.6979 753.057L89.1794 747.554C89.7414 746.46 90.1277 745.225 90.1277 743.884C90.1277 739.58 86.7558 736.123 82.541 735.946V661.505C86.9314 661.328 90.4438 657.73 90.4438 653.284C90.4438 651.908 90.0575 650.603 89.4604 649.474L151.805 613.276ZM7.69212 881.407C7.93798 880.878 8.1136 880.314 8.1136 879.679C8.1136 877.562 6.46278 875.868 4.39048 875.692V790.984C5.26857 790.807 5.97105 790.066 5.97105 789.114C5.97105 788.902 5.9008 788.69 5.83055 788.479L75.446 748.118C76.8509 750.341 79.3096 751.822 82.1195 751.822C84.9294 751.822 87.3881 750.341 88.793 748.118L117.314 764.665L156.16 787.209C155.88 787.808 155.669 788.444 155.669 789.149C155.669 791.513 157.495 793.418 159.813 793.594V873.187C156.371 873.363 153.596 876.221 153.596 879.714C153.596 880.808 153.877 881.795 154.334 882.677L115.066 905.469L86.2641 922.156C85.3509 920.78 83.8054 919.898 82.0492 919.898C80.293 919.898 78.7476 920.78 77.8344 922.156L7.69212 881.407Z" fill="url(#paint0_linear_2781_5889)"></path><path d="M1904.14 10.0974C1905.9 10.0974 1907.45 9.19282 1908.35 7.80443L1919.96 14.536V13.8839L1908.62 7.3206C1908.98 6.6264 1909.19 5.8691 1909.19 5.04869C1909.19 2.25087 1906.92 0 1904.16 0C1901.37 0 1899.13 2.27191 1899.13 5.04869C1899.13 5.8691 1899.34 6.6264 1899.69 7.3206L1844.19 39.506C1843.24 38.0545 1841.63 37.0868 1839.76 37.0868C1837.92 37.0868 1836.29 38.0545 1835.34 39.506L1778.37 6.47915C1778.58 6.03739 1778.7 5.57459 1778.7 5.04869C1778.7 3.1975 1777.19 1.6829 1775.35 1.6829C1773.51 1.6829 1772 3.1975 1772 5.04869C1772 5.55356 1772.12 6.03739 1772.33 6.47915L1715.1 39.6532C1714.2 38.2859 1712.67 37.3813 1710.93 37.3813C1709.2 37.3813 1707.67 38.2859 1706.76 39.6532L1650.4 6.98402C1650.69 6.395 1650.86 5.76392 1650.86 5.06972C1650.86 2.6716 1648.91 0.715231 1646.52 0.715231C1644.13 0.715231 1642.18 2.6716 1642.18 5.06972C1642.18 5.76392 1642.35 6.41604 1642.64 6.98402L1587.93 38.6435C1586.69 36.6871 1584.54 35.3829 1582.06 35.3829C1579.59 35.3829 1577.43 36.6871 1576.2 38.6435L1521.02 6.66847C1521.25 6.1636 1521.42 5.6377 1521.42 5.04869C1521.42 2.9661 1519.72 1.26217 1517.65 1.26217C1515.57 1.26217 1513.88 2.9661 1513.88 5.04869C1513.88 5.6377 1514.04 6.18464 1514.27 6.66847L1457.49 39.5901C1456.59 38.2017 1455.01 37.2761 1453.23 37.2761C1451.45 37.2761 1449.88 38.2017 1448.98 39.5901L1391.17 6.07946C1391.31 5.76392 1391.4 5.4063 1391.4 5.04869C1391.4 3.61823 1390.24 2.46123 1388.82 2.46123C1387.39 2.46123 1386.24 3.61823 1386.24 5.04869C1386.24 5.42734 1386.32 5.76392 1386.47 6.07946L1331.93 37.6758C1330.35 35.1515 1327.59 33.4475 1324.4 33.4475C1319.5 33.4475 1315.52 37.4444 1315.52 42.3669C1315.52 47.2052 1319.35 51.0969 1324.13 51.2652V111.492C1321.2 111.639 1318.85 114.058 1318.85 117.045C1318.85 120.138 1321.34 122.62 1324.4 122.62C1326.35 122.62 1328.07 121.589 1329.06 120.075L1384.35 152.134C1384.02 152.807 1383.81 153.564 1383.81 154.385C1383.81 157.056 1385.91 159.223 1388.52 159.37V222.332C1384.94 222.479 1382.09 225.424 1382.09 229.042C1382.09 232.765 1385.11 235.795 1388.82 235.795C1391.21 235.795 1393.28 234.533 1394.48 232.66L1448.48 263.962C1448.1 264.698 1447.87 265.519 1447.87 266.381C1447.87 269.347 1450.26 271.746 1453.21 271.746C1456.17 271.746 1458.56 269.347 1458.56 266.381C1458.56 265.498 1458.33 264.677 1457.95 263.962L1512.24 232.492C1513.37 234.28 1515.34 235.458 1517.61 235.458C1519.87 235.458 1521.84 234.28 1522.97 232.492L1578.42 264.635C1578.17 265.161 1578 265.771 1578 266.402C1578 268.527 1579.65 270.273 1581.75 270.42V334.202C1578.08 334.349 1575.15 337.357 1575.15 341.081C1575.15 344.888 1578.23 348.002 1582.04 348.002C1584.49 348.002 1586.63 346.719 1587.85 344.783L1640.15 375.096C1639.63 376.085 1639.29 377.221 1639.29 378.42C1639.29 382.291 1642.35 385.425 1646.16 385.572V447.482C1643.19 447.629 1640.82 450.069 1640.82 453.099C1640.82 456.212 1643.33 458.757 1646.46 458.757C1648.45 458.757 1650.17 457.727 1651.17 456.17L1707.02 488.524C1706.72 489.113 1706.55 489.744 1706.55 490.438C1706.55 492.731 1708.34 494.603 1710.6 494.75V560.488C1708.17 560.636 1706.24 562.634 1706.24 565.116C1706.24 567.683 1708.32 569.765 1710.87 569.765C1712.49 569.765 1713.91 568.924 1714.75 567.683L1767.34 598.164C1766.65 599.447 1766.23 600.878 1766.23 602.435C1766.23 607.462 1770.3 611.522 1775.29 611.522C1780.29 611.522 1784.34 607.441 1784.34 602.435C1784.34 600.878 1783.92 599.426 1783.23 598.164L1835.59 567.809C1836.47 569.155 1837.98 570.039 1839.7 570.039C1841.42 570.039 1842.93 569.155 1843.81 567.809L1897.62 598.985C1897.08 600.015 1896.74 601.172 1896.74 602.435C1896.74 606.431 1899.9 609.65 1903.84 609.818V667.268C1898.54 667.415 1894.29 671.749 1894.29 677.113C1894.29 682.561 1898.69 687 1904.14 687C1907.68 687 1910.76 685.107 1912.5 682.288L1919.96 686.621V685.969L1912.77 681.804C1913.52 680.416 1913.99 678.838 1913.99 677.134C1913.99 671.77 1909.73 667.436 1904.43 667.289V609.839C1908.37 609.692 1911.53 606.452 1911.53 602.456C1911.53 601.214 1911.2 600.057 1910.65 599.006L1919.98 593.599V592.947L1910.4 598.501C1909.1 596.418 1906.8 595.03 1904.18 595.03C1901.54 595.03 1899.25 596.418 1897.96 598.501L1844.14 567.325C1844.48 566.652 1844.69 565.916 1844.69 565.116C1844.69 562.487 1842.63 560.341 1840.04 560.194V495.255C1842.57 495.108 1844.58 493.025 1844.58 490.438C1844.58 489.659 1844.37 488.923 1844.06 488.271L1890.83 461.155L1901.08 455.223C1901.77 456.233 1902.86 456.948 1904.18 456.948C1905.5 456.948 1906.59 456.233 1907.28 455.223L1920 462.586V461.934L1907.59 454.739C1907.85 454.235 1908.01 453.688 1908.01 453.078C1908.01 451.058 1906.44 449.438 1904.47 449.291V382.985C1906.86 382.838 1908.77 380.86 1908.77 378.42C1908.77 377.684 1908.58 376.99 1908.27 376.38L1920 369.585V368.933L1907.99 375.896C1907.18 374.655 1905.77 373.834 1904.18 373.834C1902.59 373.834 1901.18 374.655 1900.37 375.896L1870.4 358.541L1845.04 343.837C1845.46 343.016 1845.74 342.091 1845.74 341.102C1845.74 337.883 1843.22 335.296 1840.06 335.149V273.386C1843.77 273.239 1846.74 270.189 1846.74 266.423C1846.74 265.245 1846.43 264.173 1845.92 263.184L1862.14 253.781L1899.42 232.176C1900.43 233.754 1902.19 234.806 1904.2 234.806C1906.21 234.806 1907.97 233.754 1908.98 232.176L1920 238.571V237.919L1909.23 231.672C1909.63 230.893 1909.88 230.01 1909.88 229.063C1909.88 225.992 1907.47 223.51 1904.45 223.362V161.831C1908.43 161.684 1911.64 158.403 1911.64 154.364C1911.64 153.101 1911.3 151.923 1910.74 150.872L1919.98 145.507V144.855L1910.47 150.367C1909.15 148.263 1906.82 146.854 1904.16 146.854C1901.5 146.854 1899.17 148.263 1897.85 150.367L1871.07 134.842L1845.04 119.759C1845.46 118.939 1845.74 118.013 1845.74 117.003C1845.74 113.785 1843.2 111.155 1840.02 111.008V47.647C1842.8 47.4997 1845.02 45.2068 1845.02 42.3669C1845.02 41.5044 1844.79 40.705 1844.44 39.9688L1899.95 7.78339C1900.83 9.17178 1902.38 10.0974 1904.14 10.0974ZM1897.58 150.893C1897.03 151.944 1896.68 153.101 1896.68 154.385C1896.68 158.424 1899.86 161.705 1903.86 161.852V223.362C1900.85 223.51 1898.44 225.992 1898.44 229.063C1898.44 230.01 1898.69 230.872 1899.09 231.672L1853.07 258.345L1845.59 262.679C1844.35 260.723 1842.19 259.418 1839.72 259.418C1837.25 259.418 1835.09 260.723 1833.85 262.679L1802.95 244.777L1782.52 232.934C1783.12 231.777 1783.52 230.473 1783.52 229.084C1783.52 224.624 1780 221.027 1775.6 220.88V161.348C1779.33 161.2 1782.31 158.15 1782.31 154.364C1782.31 153.186 1781.99 152.092 1781.49 151.124L1834.71 120.285C1835.78 121.947 1837.63 123.062 1839.74 123.062C1841.86 123.062 1843.72 121.947 1844.77 120.285L1859.08 128.594L1897.58 150.893ZM1900.05 376.338C1899.74 376.948 1899.55 377.642 1899.55 378.378C1899.55 380.818 1901.45 382.796 1903.84 382.943V449.249C1901.87 449.396 1900.3 451.016 1900.3 453.035C1900.3 453.646 1900.47 454.192 1900.72 454.697L1853.07 482.318L1843.75 487.724C1842.89 486.42 1841.4 485.536 1839.72 485.536C1838.05 485.536 1836.56 486.399 1835.7 487.724L1802.95 468.75L1782.79 457.074C1783.44 455.875 1783.84 454.529 1783.84 453.057C1783.84 448.429 1780.17 444.684 1775.6 444.516V386.835C1780.13 386.687 1783.75 382.964 1783.75 378.399C1783.75 376.948 1783.35 375.622 1782.73 374.423L1834.71 344.278C1835.78 345.94 1837.61 347.034 1839.72 347.034C1841.82 347.034 1843.66 345.94 1844.73 344.278L1889.47 370.216L1900.05 376.338ZM1650.33 230.956C1650.63 230.388 1650.79 229.736 1650.79 229.042C1650.79 226.749 1649.01 224.877 1646.77 224.73V163.788C1651.84 163.641 1655.91 159.496 1655.91 154.364C1655.91 152.744 1655.47 151.229 1654.75 149.904L1697.57 125.081L1708.04 119.002C1708.69 119.927 1709.7 120.579 1710.91 120.579C1712.13 120.579 1713.13 119.927 1713.78 119.002L1747.81 138.734L1769.17 151.103C1768.66 152.071 1768.35 153.165 1768.35 154.343C1768.35 158.108 1771.33 161.179 1775.06 161.327V220.817C1770.66 220.964 1767.14 224.561 1767.14 229.021C1767.14 230.43 1767.51 231.714 1768.12 232.871L1748.36 244.314L1714.77 263.794C1713.95 262.532 1712.53 261.711 1710.91 261.711C1709.3 261.711 1707.9 262.532 1707.06 263.794L1660.12 236.594L1650.33 230.956ZM1716.19 343.795C1716.61 342.974 1716.89 342.049 1716.89 341.039C1716.89 337.799 1714.35 335.191 1711.16 335.043V270.988C1713.6 270.841 1715.5 268.843 1715.5 266.381C1715.5 265.645 1715.31 264.951 1715 264.32L1761.94 237.12L1768.37 233.397C1769.82 235.732 1772.37 237.288 1775.31 237.288C1778.24 237.288 1780.8 235.732 1782.24 233.397L1801.46 244.546L1833.58 263.163C1833.08 264.13 1832.77 265.224 1832.77 266.402C1832.77 270.168 1835.74 273.218 1839.45 273.365V335.128C1836.29 335.275 1833.77 337.883 1833.77 341.081C1833.77 342.07 1834.02 342.995 1834.46 343.816L1782.47 373.96C1780.99 371.562 1778.35 369.964 1775.33 369.964C1772.31 369.964 1769.67 371.562 1768.18 373.96L1729.67 351.641L1716.19 343.795ZM1772.6 6.92091C1773.21 7.78339 1774.18 8.39344 1775.31 8.39344C1776.44 8.39344 1777.4 7.78339 1778.01 6.92091L1835.05 39.9688C1834.69 40.684 1834.46 41.5044 1834.46 42.3669C1834.46 45.2068 1836.68 47.4997 1839.47 47.647V111.05C1836.29 111.197 1833.75 113.806 1833.75 117.045C1833.75 118.034 1834.02 118.96 1834.44 119.801L1799.7 139.933L1781.22 150.64C1779.98 148.684 1777.82 147.359 1775.33 147.359C1772.86 147.359 1770.68 148.663 1769.44 150.619L1740.77 134.001L1714.1 118.539C1714.33 118.076 1714.48 117.571 1714.48 117.024C1714.48 115.152 1713.03 113.659 1711.21 113.511V47.3525C1713.83 47.2052 1715.92 45.0385 1715.92 42.3669C1715.92 41.5465 1715.71 40.7892 1715.38 40.116L1772.6 6.92091ZM1642.87 7.44681C1643.65 8.6038 1644.97 9.38214 1646.48 9.38214C1647.99 9.38214 1649.31 8.6038 1650.08 7.44681L1706.45 40.116C1706.11 40.7892 1705.91 41.5465 1705.91 42.3669C1705.91 45.0385 1708 47.2052 1710.62 47.3525V113.532C1708.8 113.68 1707.35 115.173 1707.35 117.045C1707.35 117.592 1707.5 118.097 1707.73 118.56L1679.88 134.716L1654.5 149.42C1652.85 146.727 1649.89 144.918 1646.52 144.918C1643.15 144.918 1640.19 146.727 1638.54 149.42L1598.43 126.196L1589.36 120.937C1589.98 119.759 1590.36 118.455 1590.36 117.045C1590.36 112.544 1586.8 108.904 1582.34 108.736V49.3088C1586.04 49.1616 1589 46.1113 1589 42.3669C1589 41.1889 1588.68 40.116 1588.18 39.1484L1642.87 7.44681ZM1514.59 7.13127C1515.26 8.11997 1516.35 8.81416 1517.65 8.81416C1518.95 8.81416 1520.02 8.11997 1520.71 7.13127L1575.94 39.1484C1575.44 40.116 1575.13 41.2099 1575.13 42.3669C1575.13 46.1324 1578.1 49.1616 1581.79 49.3088V108.736C1577.35 108.883 1573.76 112.523 1573.76 117.045C1573.76 118.455 1574.14 119.78 1574.77 120.937L1556.73 131.392L1520.41 152.449C1519.79 151.545 1518.82 150.935 1517.65 150.935C1516.47 150.935 1515.49 151.566 1514.88 152.449L1477.46 130.761L1461.09 121.274C1461.76 120.011 1462.18 118.581 1462.18 117.045C1462.18 112.186 1458.33 108.252 1453.51 108.084V47.4577C1456.19 47.3104 1458.33 45.1016 1458.33 42.3669C1458.33 41.5254 1458.12 40.7681 1457.76 40.0739L1514.59 7.13127ZM1329.33 119.57C1329.73 118.812 1329.96 117.95 1329.96 117.045C1329.96 114.058 1327.61 111.639 1324.68 111.492V51.2652C1329.45 51.1179 1333.29 47.2052 1333.29 42.3669C1333.29 40.8523 1332.87 39.4218 1332.2 38.1807L1386.79 6.54226C1387.25 7.17334 1387.98 7.6151 1388.82 7.6151C1389.68 7.6151 1390.39 7.17334 1390.85 6.54226L1448.71 40.0739C1448.35 40.7681 1448.14 41.5465 1448.14 42.3669C1448.14 45.1016 1450.28 47.3104 1452.96 47.4577V108.084C1448.16 108.231 1444.29 112.165 1444.29 117.045C1444.29 118.581 1444.7 120.011 1445.38 121.274L1422.18 134.716L1392.99 151.629C1392.09 150.262 1390.56 149.357 1388.8 149.357C1387.04 149.357 1385.51 150.262 1384.63 151.629L1329.33 119.57ZM1457.72 263.457C1456.75 261.985 1455.12 261.017 1453.23 261.017C1451.35 261.017 1449.71 261.985 1448.75 263.457L1394.75 232.155C1395.23 231.23 1395.54 230.178 1395.54 229.042C1395.54 225.403 1392.67 222.479 1389.11 222.332V159.37C1391.75 159.223 1393.83 157.056 1393.83 154.385C1393.83 153.564 1393.62 152.807 1393.28 152.134L1439.91 125.102L1445.67 121.757C1447.24 124.303 1450.05 126.028 1453.25 126.028C1456.46 126.028 1459.27 124.324 1460.84 121.757L1504.03 146.791L1514.59 152.912C1514.38 153.354 1514.23 153.838 1514.23 154.385C1514.23 156.194 1515.64 157.624 1517.4 157.771V222.689C1514 222.836 1511.3 225.613 1511.3 229.063C1511.3 230.136 1511.59 231.125 1512.03 232.008L1457.72 263.457ZM1523.28 231.987C1523.75 231.104 1524.02 230.115 1524.02 229.042C1524.02 225.613 1521.32 222.815 1517.92 222.668V157.771C1519.68 157.624 1521.08 156.194 1521.08 154.385C1521.08 153.859 1520.94 153.375 1520.73 152.912L1554.82 133.138L1575.02 121.421C1576.49 123.777 1579.07 125.355 1582.04 125.355C1585.02 125.355 1587.59 123.777 1589.06 121.421L1632.84 146.791L1638.2 149.904C1637.49 151.229 1637.05 152.744 1637.05 154.364C1637.05 159.496 1641.11 163.641 1646.18 163.788V224.73C1643.94 224.877 1642.14 226.728 1642.14 229.042C1642.14 229.736 1642.31 230.367 1642.6 230.956L1603.42 253.675L1585.37 264.13C1584.64 263.058 1583.42 262.342 1582.04 262.342C1580.66 262.342 1579.42 263.058 1578.71 264.13L1523.28 231.987ZM1588.14 344.236C1588.64 343.269 1588.96 342.196 1588.96 341.039C1588.96 337.315 1586.02 334.307 1582.36 334.16V270.378C1584.45 270.231 1586.11 268.506 1586.11 266.36C1586.11 265.729 1585.94 265.14 1585.69 264.593L1609.05 251.046L1642.92 231.419C1643.69 232.576 1645.01 233.354 1646.5 233.354C1647.99 233.354 1649.31 232.597 1650.08 231.419L1689.25 254.117L1706.79 264.278C1706.47 264.909 1706.28 265.603 1706.28 266.339C1706.28 268.8 1708.21 270.799 1710.62 270.946V335.001C1707.44 335.149 1704.9 337.757 1704.9 340.997C1704.9 341.985 1705.17 342.932 1705.59 343.752L1654.61 373.308L1652.51 374.507C1651.26 372.488 1649.03 371.142 1646.48 371.142C1643.94 371.142 1641.72 372.488 1640.44 374.507L1588.14 344.236ZM1651.46 455.623C1651.86 454.845 1652.11 453.982 1652.11 453.057C1652.11 450.027 1649.75 447.587 1646.77 447.44V385.53C1650.58 385.383 1653.64 382.249 1653.64 378.378C1653.64 377.179 1653.31 376.043 1652.79 375.054L1697.57 349.096L1705.86 344.278C1706.93 345.94 1708.78 347.055 1710.91 347.055C1713.03 347.055 1714.89 345.94 1715.96 344.278L1747.84 362.748L1767.93 374.402C1767.3 375.601 1766.9 376.927 1766.9 378.378C1766.9 382.964 1770.53 386.666 1775.06 386.814V444.516C1770.49 444.663 1766.8 448.408 1766.8 453.057C1766.8 454.508 1767.2 455.875 1767.85 457.074L1748.36 468.371L1714.52 487.998C1713.74 486.841 1712.42 486.062 1710.93 486.062C1709.45 486.062 1708.13 486.82 1707.35 487.998L1651.46 455.623ZM1782.98 597.617C1781.38 595.03 1778.56 593.305 1775.31 593.305C1772.06 593.305 1769.23 595.03 1767.64 597.617L1715.04 567.136C1715.36 566.505 1715.54 565.81 1715.54 565.074C1715.54 562.592 1713.62 560.593 1711.19 560.446V494.708C1713.45 494.561 1715.23 492.689 1715.23 490.396C1715.23 489.702 1715.06 489.07 1714.77 488.481L1761.96 461.134L1768.1 457.579C1769.61 459.998 1772.27 461.639 1775.33 461.639C1778.39 461.639 1781.05 460.019 1782.56 457.579L1801.5 468.56L1835.47 488.25C1835.13 488.902 1834.94 489.638 1834.94 490.417C1834.94 492.983 1836.96 495.066 1839.47 495.234V560.173C1836.89 560.32 1834.82 562.445 1834.82 565.095C1834.82 565.895 1835.03 566.631 1835.36 567.304L1782.98 597.617Z" fill="url(#paint1_linear_2781_5889)"></path><defs><linearGradient id="paint0_linear_2781_5889" x1="-4.97925" y1="920.5" x2="638.34" y2="920.5" gradientUnits="userSpaceOnUse"><stop stop-color="#40A9F9"></stop><stop offset="1" stop-color="#4EA6F4"></stop></linearGradient><linearGradient id="paint1_linear_2781_5889" x1="1315.52" y1="-18" x2="1824.51" y2="626.944" gradientUnits="userSpaceOnUse"><stop stop-color="#3DA5EE" stop-opacity="0"></stop><stop offset="1" stop-color="#187CE9"></stop></linearGradient></defs></svg>